<?xml version="1.0" encoding="utf-8"?>
<!-- Generator: Adobe Illustrator 18.1.1, SVG Export Plug-In . SVG Version: 6.00 Build 0)  -->
<svg version="1.1" baseProfile="tiny" id="Layer_1" xmlns="http://www.w3.org/2000/svg" xmlns:xlink="http://www.w3.org/1999/xlink"
	 x="0px" y="0px" viewBox="0 0 35 35" xml:space="preserve">
<g>
	<circle fill="none" stroke="#2CACE3" stroke-miterlimit="10" cx="17.5" cy="17.5" r="17"/>
	<path fill="#2CACE3" d="M9.6,17.5c0-2.4,0-4.7,0-7.1c0-0.7,0.5-1.2,1.2-1.2c0,0,0,0,0.1,0c4.7,0,9.4,0,14.1,0c0.6,0,1,0.3,1.2,0.8
		c0,0.1,0.1,0.2,0.1,0.3c0,4.8,0,9.5,0,14.3c0,0.6-0.6,1.2-1.2,1.2c-0.7,0-1.3,0-2,0c-4.1,0-8.2,0-12.2,0c-0.6,0-1.1-0.4-1.2-1
		c0-0.1,0-0.2,0-0.2C9.6,22.2,9.6,19.8,9.6,17.5z M18.5,16.5c0-0.3,0-0.6,0-0.9c0-0.1,0-0.2-0.2-0.2c-0.7,0-1.3,0-2,0
		c-0.2,0-0.2,0-0.2,0.2c0,2.5,0,5.1,0,7.6c0,0.1,0,0.1,0.1,0.1c0.7,0,1.5,0,2.2,0c0.1,0,0.1,0,0.1-0.1c0-1.2,0-2.5,0-3.7
		c0-0.3,0-0.6,0.1-0.9c0.1-0.4,0.2-0.8,0.6-1c0.3-0.2,0.7-0.2,1.1-0.2c0.5,0.1,0.7,0.4,0.9,0.8c0.1,0.3,0.1,0.6,0.1,1
		c0,1.3,0,2.7,0,4c0,0.2,0,0.2,0.2,0.2c0.7,0,1.4,0,2.1,0c0.1,0,0.2,0,0.2-0.1c0-1.7,0-3.4,0-5c0-0.5-0.1-0.9-0.3-1.4
		c-0.3-0.7-0.7-1.2-1.5-1.4c-0.5-0.2-1-0.2-1.6-0.1c-0.8,0.1-1.4,0.4-1.9,1.1C18.6,16.4,18.6,16.4,18.5,16.5z M12.1,19.4
		c0,1.3,0,2.5,0,3.8c0,0.2,0,0.2,0.2,0.2c0.7,0,1.4,0,2.1,0c0.2,0,0.2,0,0.2-0.2c0-2.5,0-5,0-7.5c0-0.2,0-0.2-0.2-0.2
		c-0.7,0-1.4,0-2.1,0c-0.2,0-0.2,0-0.2,0.2C12.1,16.8,12.1,18.1,12.1,19.4z M14.8,12.9c0-0.8-0.7-1.4-1.4-1.4
		c-0.7,0-1.4,0.5-1.4,1.4c0,0.8,0.6,1.4,1.4,1.4C14.2,14.3,14.8,13.6,14.8,12.9z"/>
</g>
</svg>
