<?xml version="1.0" encoding="utf-8"?>
<!-- Generator: Adobe Illustrator 18.1.1, SVG Export Plug-In . SVG Version: 6.00 Build 0)  -->
<svg version="1.1" baseProfile="tiny" id="Layer_1" xmlns="http://www.w3.org/2000/svg" xmlns:xlink="http://www.w3.org/1999/xlink"
	 x="0px" y="0px" viewBox="0 0 35 35" xml:space="preserve">
<circle fill="none" stroke="#2CACE3" stroke-miterlimit="10" cx="17.5" cy="17.5" r="17"/>
<path fill="#2CACE3" d="M14.8,21.6c-0.4-0.1-0.8-0.1-1.2-0.3c-0.9-0.4-1.5-1.1-1.9-2c-0.1-0.2-0.1-0.2,0.1-0.2c0.4,0,0.8,0,1.1,0
	c0.1,0,0.1,0,0.2-0.1c0-0.1-0.1,0-0.1-0.1c-1.3-0.4-2.4-1.6-2.5-2.9c0-0.1,0-0.2,0-0.3c0-0.1,0-0.2,0.1-0.1c0.4,0.2,0.7,0.3,1.1,0.3
	c0.1,0,0.1,0,0.2,0c-0.1-0.1-0.2-0.2-0.3-0.3c-0.8-0.8-1.2-1.8-1.1-2.9c0-0.5,0.2-0.9,0.4-1.4c0.1-0.1,0.1-0.1,0.2,0
	c0.9,1.1,2,1.9,3.2,2.5c1.1,0.5,2.2,0.9,3.5,1c0.1,0,0.2,0,0.3,0c0.1,0,0.2,0,0.1-0.2c-0.1-0.6-0.1-1.2,0.1-1.8
	c0.5-1.4,1.5-2.2,2.9-2.3c1.1-0.1,2.1,0.2,2.9,1c0.1,0.1,0.2,0.1,0.2,0.1c0.7-0.2,1.3-0.4,2-0.7c0,0,0.1,0,0.1-0.1
	c-0.1,0.4-0.3,0.8-0.6,1.1c-0.2,0.3-0.5,0.6-0.9,0.8c0.7-0.1,1.3-0.2,1.9-0.5c-0.1,0.2-0.3,0.4-0.4,0.6c-0.3,0.4-0.7,0.8-1.2,1.1
	c-0.1,0.1-0.1,0.2-0.1,0.3c0,1.1-0.1,2.1-0.4,3.1c-0.4,1.3-1,2.5-1.9,3.6c-0.9,1.1-2,2-3.3,2.6c-0.9,0.5-1.9,0.7-3,0.9
	c-0.5,0.1-1,0.1-1.6,0.1c-1.3,0-2.6-0.3-3.7-0.8c-0.5-0.2-0.9-0.4-1.3-0.7c0,0-0.1,0-0.1-0.1C11.6,23.2,13.3,22.7,14.8,21.6z"/>
</svg>
