<?xml version="1.0" encoding="utf-8"?>
<!-- Generator: Adobe Illustrator 18.1.1, SVG Export Plug-In . SVG Version: 6.00 Build 0)  -->
<svg version="1.1" baseProfile="tiny" id="Layer_1" xmlns="http://www.w3.org/2000/svg" xmlns:xlink="http://www.w3.org/1999/xlink"
	 x="0px" y="0px" viewBox="0 0 35 35" xml:space="preserve">
<g>
	<circle fill="none" stroke="#2CACE3" stroke-miterlimit="10" cx="17.5" cy="17.5" r="17"/>
	<path fill="#2CACE3" d="M15.5,22.4c0,1.5,0,3.1,0,4.6c0,0.2,0,0.2,0.2,0.2c1.1,0,2.3,0,3.4,0c0.3,0,0.3,0,0.3-0.3c0-3,0-6.1,0-9.1
		c0-0.3,0-0.3,0.3-0.3c0.7,0,1.5,0,2.2,0c0.2,0,0.2-0.1,0.2-0.2c0.1-1,0.2-1.9,0.3-2.9c0-0.2,0-0.2-0.2-0.2c-0.9,0-1.7,0-2.6,0
		c-0.2,0-0.2,0-0.2-0.2c0-0.6,0-1.2,0-1.8c0-0.6,0.3-0.9,0.9-1c0,0,0,0,0.1,0c0.6,0,1.2,0,1.7,0c0.2,0,0.2,0,0.2-0.2
		c0-1,0-1.9,0-2.9c0-0.2,0-0.2-0.2-0.2c-0.8,0-1.7,0-2.5,0c-0.5,0-1,0.1-1.5,0.2c-1.3,0.3-2.2,1.1-2.5,2.4c-0.1,0.5-0.2,1-0.2,1.5
		c0,0.7,0,1.3,0,2c0,0.3,0,0.3-0.3,0.3c-0.5,0-1,0-1.5,0c-0.2,0-0.2,0-0.2,0.2c0,1,0,2,0,2.9c0,0.2,0,0.2,0.2,0.2c0.5,0,1,0,1.5,0
		c0.3,0,0.3,0,0.3,0.3C15.5,19.3,15.5,20.9,15.5,22.4z"/>
</g>
</svg>
