<svg xmlns="http://www.w3.org/2000/svg" viewBox="16.7 219.9 760.6 171.1"><g fill="#FFF"><path d="M110.1 274.8l-.9 1.2s6.5-.3 6.5.3c-.1.4-1.8 1-2.6 1.3s-6.5 2.5-6.5 2.5.6 1.3 1.8 1.4c.6.1 2.8-.4 2.8-.6.1-.1 3.5 1.2 3.5 1.2l-.4 2.1 3.5-.6-.1-3.6 4.5-2.2s0-2.7-.3-2.8c-.6-.5-1.9-.9-2.8-1l-9 .8z"/><path d="M146.9 226.7l-8.4 22.3c1-4.8-.5-11.1-6.9-15-6.9-4.1-16.7-3.8-25.5 1.9 3-.9 6.1-1.2 9.2-.9 2.7.1 5.4.8 7.8 1.9 3 1.4 4.8 3.5 5.7 5.7.8 1.8.9 3.8.6 5.4s-.9 3.2-1.9 4.3c-.6.8-1.6.9-1.8 1 .6-2.5.3-3.6 0-4.8-1.4-4.9-6.5-7.5-10.9-7.4-6 .3-10.1 2.5-13.2 7.2 5.6-4.3 13.8-2.5 14 2.6.1 3.2-6.7 5.4-12.7 2.8-7-3-12.4-4.5-18-4.3-1.4.1-2.8.3-4.4.6-7.1 1.7-12.9 5.3-14.8 11.6.4-1 2.5-4.9 11.4-5.7 1.8-.1 3.9-.1 6.3 0 7.6.5 12.8 5.2 18.4 6.1 5.3.9 8.4.1 11.5-3 5 8.5 13.6 4.8 13.6 4.8.6 3.5 1.2 6.5 1.2 7.9.1 2.8-2.3 3.5-2.2 6.2.1 2.8 6.1 18 6.1 18 1 1.2 1 2.8-.9 4.3-.8.5-2.5.8-2.8.6 0-.4-.1-.9-.3-1.2-1.7-.9-5.3-.9-6.6.6l.6 1c1.2-.8 3.4-.9 4.5-.3-.4.3-.9.9-1.2 1.4-1.2 2.1.1 4.8.1 4.8l-.9 1.7-.6-.6c-.6-.6-1.7-.4-1.7-.4l-7.5 1-.9 1.3s5.6.8 6.7 1.2c1.9.5 2.8 3.4 1.4 5.2-1.4.5-2.3 1.7-2.6 3.2.3.9 2.2 3.4 1.8 5.8-.5 4-4.7 5.6-7.5 5.4-.3 0-1-.1-1.7-.3l-21.6-4.4-56.8 42.6 56.9-34.4-47 47.2L98 337.7l-38.6 51.6 47.1-51.2L77.9 391l37.3-54.2L98.7 389l25.5-55-4.5 49.8 13.1-53.4 8.9 44.5-.6-49.2 22.5 37.3-14.2-43 35.5 28-27.7-34.2 47.5 15.5-40.5-22.4 56.4 2.1-50.7-9.4 63.3-11.6-58.5 3.5 64.7-24.3-61.9 16 61.5-34.7-60.8 26.7 52.8-42.1-55.4 35.7 42.3-44.8-47.4 40.2 29.8-44.1-37.6 41.9 18.5-42.1-27.6 42.2 9.1-38.8-19.7 41.4 3.9-38z"/><path d="M56 300.4c10.6 3.9 18.9-.1 19.9-7.6 0 0 7 1.6 13.1-3.2 4.8-3.8 5-8.3 3.2-13.7 4.3-1.4 9.3-4.9 11.1-8.9-4.3 3.1-10.9 3.9-18.5 3.1-5.6-.5-11.3-2.7-17.6-4.8-1.7-.5-3.2-1-4.9-1.6-12-3.2-22-2.1-28.3 1.4-6 3.2-8 8.2-7.4 12.4 3.4-9.4 18.1-9.7 32.2-5.2.6.3 1.3.4 1.9.6 9.6 3.1 18.9 5.7 25.9 4-.3 4.5-4.4 7.5-10.1 6.7-3.8-.4-7.1-1.9-11.9-2.3-7.5-.6-13.2 1.7-15.1 7.5 4.1-4.5 18.6-4.1 17.3 2.7-.8 3.1-5.3 3-8.3 2.3-5.4-1.4-8.4-1.4-11.6-1-6.6.8-8.9 4.8-9.1 7.1 2.2-2.4 5.3-4.3 18.2.5zM95.4 242.2c1.6-1.6 3.5-3.1 5.2-4.3-6.1-2.5-15.8-5-25.1-4.7-13.8.5-24.8 7.1-29.8 16.7 4-4.1 11.3-7.2 17.5-8.8 9.1-2.2 19.3-1.8 29.8 2.5.3.1.5.3.8.4.5-.5 1.1-1.2 1.6-1.8zM17.7 384.3c0-2.6 1.9-4.4 4.4-4.4s4.3 1.9 4.3 4.4c0 2.6-1.9 4.5-4.3 4.5s-4.4-1.9-4.4-4.5zm4.4 5.4c3 0 5.4-2.3 5.4-5.3 0-3.1-2.5-5.3-5.4-5.3s-5.4 2.2-5.4 5.3c0 3 2.5 5.3 5.4 5.3zm-1.1-4.9h1l1.7 2.7h1l-1.8-2.7c.9-.1 1.6-.6 1.6-1.7 0-1.2-.8-1.8-2.2-1.8H20v6.2h.9v-2.7h.1zm0-.8v-1.9h1.3c.6 0 1.3.1 1.3.9 0 .9-.6 1-1.6 1h-1z"/><g><path d="M271.4 306.1h28.9c18 0 29.5-11 29.5-28.6 0-17.3-7.5-29.9-30.9-29.9h-27.6v58.5h.1zm22.8-45.3h2.3c3.8 0 6 1.4 7.4 3.8 1.6 2.5 2.1 6.6 2.1 12.3s-.5 9.8-2.1 12.3c-1.4 2.3-3.6 3.8-7.4 3.8h-2.3v-32.2zM347.1 306.1h23.1v-42.8h14.5v-15.8h-52.1v15.8h14.5zM389.5 306.1h45.3v-15.2h-23v-6.6h20.6V269h-20.6v-6.2H434v-15.3h-44.5zM462.1 306.1h45.3v-15.2h-23v-6.6H505V269h-20.6v-6.2h22.2v-15.3h-44.5zM512.5 306.1h19.7v-25.4c0-3.2 1.7-4.5 3.9-4.5 2.3 0 3.6 1.7 3.6 4.7v25.2h19.7V279c0-10.7-6-14.9-14.1-14.9-4.7 0-9.4 1.6-12.8 7.4h-.1l-.5-6.2h-19.3v40.8zM593.9 293.1c-.5 3-2.7 4.3-4.9 4.3-3.9 0-5.6-2.1-5.6-6.7v-1.2h28.1v-2.8c0-14.5-7.4-22.4-22.8-22.4-14.6 0-24.1 7.2-24.1 21.4 0 16.4 10.7 21.9 22.6 21.9 15.3 0 22.3-5 23.8-14.2h-17.2v-.3zm-10.5-12.3v-.6c0-3.9 2.1-6 5.3-6 3.1 0 5 2.1 5 6v.5h-10.4v.1zM616.9 306.1h19.7v-21.4c0-2.6 1.3-5 5-5 3.5 0 6 .5 8.2 1.2V266c-1.8-1-3.6-1.2-5.2-1.2-2.5 0-5.2 1.3-8 4.9l-.5-4.4h-19.2v40.8zM677.2 294.4c-4.3 0-4.4-3.2-4.4-8.2 0-4.5 0-10.5 4.8-10.5 4.7 0 4.7 4.7 4.7 9.4-.2 5-.3 9.3-5.1 9.3zm5.6 10.8c0 5.2-1.7 6.9-5.2 6.9-1.4 0-2.5-.4-3.1-.9-.8-.5-1-1.4-1-2.3h-19.3c.9 8.3 6.3 13.8 22.3 13.8 14.5 0 24.6-3.6 24.6-20.2v-37.1h-18.5l-.3 4.4h-.3c-2.6-4.3-6.9-5.7-11.6-5.7-10.1 0-18 6.5-18 21.7 0 14.8 9.4 19.4 17.5 19.4 4.5 0 9.6-1 12.7-5.3h.1v5.3h.1zM715.5 321.7h21.2l19.5-56.3h-19.7l-5.3 22.4h-.3l-5.7-22.4h-20.7l16.5 41.9zM764.6 272.1c0-3.2 2.5-5.7 5.7-5.7 3.1 0 5.6 2.5 5.6 5.7 0 3.4-2.5 5.8-5.6 5.8-3.3 0-5.7-2.4-5.7-5.8zm5.7 7c3.8 0 7-3 7-7s-3.2-6.9-7-6.9-7 3-7 6.9c-.2 4 3.1 7 7 7zm-1.6-6.5h1.4l2.1 3.5h1.3l-2.3-3.5c1.2-.1 2.1-.8 2.1-2.2 0-1.6-.9-2.3-2.8-2.3h-3v8h1.2v-3.5zm0-1v-2.5h1.7c.8 0 1.7.1 1.7 1.2 0 1.2-.9 1.3-1.9 1.3h-1.5z"/></g></g></svg>