<svg baseProfile="tiny" xmlns="http://www.w3.org/2000/svg" viewBox="0 0 17 17"><g fill="#2CACE3"><path d="M2.2.1c3.9.2 7.3 1.7 10.1 4.4 2.4 2.3 3.8 5.1 4.4 8.4.1.8.2 1.7.2 2.5s-.5 1.4-1.3 1.4-1.3-.6-1.3-1.4c0-5.4-3.5-10.3-8.6-12-1.4-.4-2.8-.6-4.3-.7C.8 2.7.2 2.2.1 1.6 0 1.1.4.4 1 .2c.4-.1.8-.1 1.2-.1z"/><path d="M1.8 4.8C6.8 5 11 8.5 12 13.5c.1.6.2 1.3.2 1.9 0 .8-.5 1.4-1.3 1.4s-1.3-.6-1.3-1.4c-.1-2.7-1.3-4.8-3.4-6.4-1.4-1-2.9-1.5-4.6-1.5-1 0-1.5-.8-1.5-1.3.1-.8.6-1.5 1.7-1.4-.1 0 0 0 0 0z"/><path d="M3.2 10.7c1.7 0 3 1.3 3 3.1 0 1.6-1.4 3-3.1 3-1.6 0-3.1-1.4-3-3.2.2-1.7 1.5-2.9 3.1-2.9z"/></g></svg>