<svg baseProfile="tiny" xmlns="http://www.w3.org/2000/svg" viewBox="0 0 17.2 17.2"><path fill="#2CACE3" d="M5.3 12.3c-.4 0-.8-.1-1.1-.3-.9-.4-1.4-1-1.8-1.8-.1-.2-.1-.2.1-.2h1c.1 0 .1 0 .2-.1 0-.1-.1 0-.1-.1-1.3-.2-2.2-1.4-2.4-2.6v-.3c0-.1 0-.2.1-.1.3.1.7.2 1.1.3h.2l-.3-.3c-.8-.7-1.2-1.6-1.1-2.7 0-.4.2-.9.4-1.3.1-.1.1-.1.2 0 .8 1 1.8 1.8 3 2.4 1 .5 2 .8 3.2.9h.3c.1 0 .1 0 .1-.2-.1-.5-.1-1.1.1-1.6.5-1.3 1.4-2 2.8-2.2 1-.1 1.9.2 2.7.9.1.1.1.1.2.1.6-.1 1.2-.4 1.8-.7l.1-.1c-.1.4-.3.7-.5 1-.2.3-.5.5-.8.8.6-.1 1.2-.2 1.8-.5-.1.2-.3.4-.4.6-.3.4-.7.7-1.1 1-.1.1-.1.1-.1.2 0 1-.1 1.9-.4 2.9-.4 1.2-1 2.4-1.8 3.4-.9 1.1-1.9 1.9-3.1 2.5-.9.4-1.8.7-2.8.8-.5.1-1 .1-1.5.1-1.2 0-2.4-.3-3.5-.7l-1.2-.6s-.1 0-.1-.1c1.7.1 3.3-.3 4.7-1.4z"/></svg>