<svg baseProfile="tiny" xmlns="http://www.w3.org/2000/svg" viewBox="0 0 17.2 17.2"><path fill="#2CACE3" d="M.3 8.6V1.5C.3.8.8.3 1.5.3h14.2c.6 0 1 .3 1.2.8 0 .1.1.2.1.3v14.3c0 .6-.6 1.2-1.2 1.2H1.6c-.6 0-1.1-.4-1.2-1v-.2C.3 13.3.3 11 .3 8.6zm8.8-1v-.9c0-.1 0-.2-.2-.2h-2c-.2 0-.2 0-.2.2v7.6c0 .1 0 .1.1.1H9c.1 0 .1 0 .1-.1v-3.7c0-.3 0-.6.1-.9.1-.4.2-.8.6-1 .3-.2.7-.2 1.1-.2.5.1.7.4.9.8.1.3.1.6.1 1v4c0 .2 0 .2.2.2h2.1c.1 0 .2 0 .2-.1v-5c0-.5-.1-.9-.3-1.4-.3-.7-.7-1.2-1.5-1.4-.5-.2-1-.2-1.6-.1-.8.1-1.4.4-1.9 1.1.1-.1.1 0 0 0zm-6.3 2.9v3.8c0 .2 0 .2.2.2h2.1c.2 0 .2 0 .2-.2V6.8c0-.2 0-.2-.2-.2H3c-.2 0-.2 0-.2.2v3.7zM5.4 4c0-.8-.7-1.4-1.4-1.4S2.6 3.1 2.6 4c0 .8.6 1.4 1.4 1.4.9 0 1.5-.7 1.4-1.4z"/></svg>