<svg baseProfile="tiny" xmlns="http://www.w3.org/2000/svg" viewBox="0 0 17.2 17.2"><path fill="#2CACE3" d="M8.2 7.9h2c.4 0 .5.1.6.5.2 2.5-1.2 5.2-4.4 5.6-3.2.4-6.1-2.1-6-5.4 0-2.8 2.4-5.1 5.2-5.2 1.3 0 2.4.3 3.4 1.1.3.2.3.4 0 .6-.4.4-.7.6-1 .9-.2.2-.3.2-.5 0-1.8-1.4-4.7-.3-5 2.4-.2 1.4.8 2.9 2.1 3.4 1.4.5 2.9 0 3.7-1.1.1-.1.1-.3.2-.4 0-.3 0-.5-.4-.5h-2c-.4 0-.5-.1-.5-.5 0-1.7-.2-1.4 1.3-1.4h1.3zm8.6 0h-1.2c-.1 0-.2-.1-.2-.2V6.6c0-.1-.1-.2-.2-.2H14c-.1 0-.2.1-.2.2v1.2c0 .1-.1.2-.2.2h-1.2c-.1 0-.2.1-.2.2v1.3c0 .1.1.2.2.2h1.2c.1 0 .2.1.2.2v1.2c0 .1.1.2.2.2h1.3c.1 0 .2-.1.2-.2V9.7c0-.1.1-.2.2-.2h1.2c.1 0 .2-.1.2-.2V8.1c-.1-.1-.2-.2-.3-.2z"/></svg>