<svg baseProfile="tiny" xmlns="http://www.w3.org/2000/svg" viewBox="0 0 35 35"><circle fill="none" stroke="#2CACE3" stroke-miterlimit="10" cx="17.5" cy="17.5" r="17"/><path fill="#2CACE3" d="M15.5 22.4V27c0 .2 0 .2.2.2h3.4c.3 0 .3 0 .3-.3v-9.1c0-.3 0-.3.3-.3h2.2c.2 0 .2-.1.2-.2.1-1 .2-1.9.3-2.9 0-.2 0-.2-.2-.2h-2.6c-.2 0-.2 0-.2-.2v-1.8c0-.6.3-.9.9-1h1.8c.2 0 .2 0 .2-.2V8.1c0-.2 0-.2-.2-.2h-2.5c-.5 0-1 .1-1.5.2-1.3.3-2.2 1.1-2.5 2.4-.1.5-.2 1-.2 1.5v2c0 .3 0 .3-.3.3h-1.5c-.2 0-.2 0-.2.2v2.9c0 .2 0 .2.2.2h1.5c.3 0 .3 0 .3.3.1 1.4.1 3 .1 4.5z"/></svg>