<svg baseProfile="tiny" xmlns="http://www.w3.org/2000/svg" viewBox="0 0 35 35"><circle fill="none" stroke="#2CACE3" stroke-miterlimit="10" cx="17.5" cy="17.5" r="17"/><g fill="#2CACE3"><path d="M25.8 19.6c0-.2-.1-.4-.1-.7 0-.5-.2-.8-.6-1-.3-.2-.6-.3-.9-.4-.6-.2-1.3-.3-2-.4-.9-.1-1.9-.2-2.8-.3-1.2-.1-2.5-.1-3.7 0-1 0-2.1.1-3.1.3-.7.1-1.5.2-2.2.4-.4.1-.7.2-1 .5-.2.1-.4.3-.4.6v.3c-.1.2-.1.4-.1.5-.2.9-.2 1.9-.2 2.8 0 .5 0 1 .1 1.5 0 .5.1 1.1.2 1.6 0 .1.1.2.2.4s.3.3.5.4c.5.3 1.1.4 1.6.5.8.2 1.6.2 2.5.3 1.2.1 2.4.2 3.6.2.7 0 1.5 0 2.2-.1.7 0 1.5-.1 2.2-.2.7-.1 1.3-.1 2-.3.5-.1.9-.2 1.3-.5.2-.1.5-.3.6-.6.1-.1.1-.3.1-.4.2-.8.2-1.7.3-2.6-.1-.9-.1-1.8-.3-2.8zm-11.3 0c.1.1 0 .1 0 0-.3.1-.5.1-.7.1-.2 0-.2 0-.2.2V25c0 .1 0 .1-.1.1h-.7c-.1 0-.1 0-.1-.1V19.8h-.8c-.1 0-.1 0-.1-.1V19c0-.1 0-.1.1-.1h2.6c.1 0 .1 0 .1.1-.1.1-.1.3-.1.6zm2.4 5.5h-.6c-.1 0-.1 0-.1-.1v-.4c0-.1-.1 0-.1 0-.1.1-.3.3-.4.3-.2.1-.4.1-.6.1-.2 0-.4-.2-.4-.5-.1-1.4 0-2.7-.1-4.1 0-.2 0-.2.2-.2h.5c.1 0 .1 0 .1.1v3.6c0 .1 0 .2.1.2.1.1.2 0 .3 0l.3-.3v-3.4c0-.1 0-.1.1-.1h.6c.1 0 .1 0 .1.1v4.5c.1.2.1.2 0 .2zm3.2-2.4v1.2c0 .2 0 .5-.1.7 0 .1 0 .1-.1.1v.1c-.2.3-.6.4-.9.2-.1-.1-.2-.2-.4-.3l-.1-.1v.3c0 .1 0 .1-.1.1h-.6c-.1 0-.1 0-.1-.1v-6.1c0-.1 0-.1.1-.1h.6c.1 0 .1 0 .1.1v1.9c.1-.1.2-.2.3-.2.2-.2.4-.2.7-.2.3 0 .5.3.5.6.2.6.1 1.2.1 1.8zm3.2.8c0 .3 0 .5-.1.8 0 .1-.1.2-.1.3-.3.6-1.1.7-1.6.4-.3-.1-.4-.4-.6-.6v-.2c-.1-.9-.1-1.8 0-2.7 0-.3.1-.5.3-.7.2-.2.4-.3.6-.4.6-.2 1.3.2 1.5.9v1.6c0 .1 0 .1-.1.1h-1.5v1c0 .2.2.4.4.4s.4-.1.4-.4v-.4c0-.1 0-.1.1-.1.2-.1.4-.1.7 0 0-.1 0-.1 0 0zM12.5 12.8v2.6c0 .1 0 .1.1.1h1c.1 0 .1 0 .1-.1v-2.2c0-.1 0-.3.1-.4.5-1.6 1-3.2 1.5-4.9 0-.1 0-.1-.1-.1h-1c-.1 0-.1 0-.2.1-.2.7-.5 1.4-.7 2.1l-.3.9c-.1-.2-.1-.3-.2-.5-.3-.9-.6-1.7-.9-2.6 0 0 0-.1-.1-.1h-1.3v.1c.8 1.7 1.4 3.4 2 5zm7.3 2.3c.4.5.9.6 1.5.1.2-.1.3-.3.5-.5v.7c0 .1 0 .1.1.1H23c.1 0 .1 0 .1-.1V10c0-.1 0-.1-.1-.1h-1.1c-.1 0-.1 0-.1.1v4c0 .1 0 .1-.1.2-.1.2-.3.4-.5.5-.2.1-.3.1-.4-.1-.1-.1-.1-.3-.1-.4v-4.1c0-.1 0-.1-.1-.1h-1c-.1 0-.1 0-.1.1v4c-.1.3 0 .7.3 1zm-4.5-2.2v1.2c0 .3.1.6.4.9.5.5 1 .6 1.7.5.8-.1 1.2-.6 1.3-1.4v-2.7c0-.4-.1-.7-.4-1-.5-.5-1.2-.7-1.9-.4-.6.2-1 .6-1.1 1.3-.1.5 0 1.1 0 1.6zm1.2-1.8c.1-.2.2-.3.5-.3.2 0 .4.1.5.4v3c-.1.3-.2.4-.5.4s-.4-.1-.5-.4V11.5c-.1-.2-.1-.3 0-.4z"/><path d="M19.3 21.4c-.1-.2-.3-.2-.5-.1l-.1.1v2.7c.1.1.3.2.4.2.1 0 .2-.2.2-.3v-2.6zm2.4.7h.6c.1 0 .1 0 .1-.1v-.6s0-.1-.1-.1c-.2-.2-.5-.2-.6 0l-.1.1v.6c0 .1.1.1.1.1z"/></g></svg>