<svg baseProfile="tiny" xmlns="http://www.w3.org/2000/svg" viewBox="0 0 35 35"><circle fill="none" stroke="#2CACE3" stroke-miterlimit="10" cx="17.5" cy="17.5" r="17"/><path fill="#2CACE3" d="M14.8 21.6c-.4-.1-.8-.1-1.2-.3-.9-.4-1.5-1.1-1.9-2-.1-.2-.1-.2.1-.2h1.1c.1 0 .1 0 .2-.1 0-.1-.1 0-.1-.1-1.3-.4-2.4-1.6-2.5-2.9v-.3c0-.1 0-.2.1-.1.4.2.7.3 1.1.3h.2l-.3-.3c-.8-.8-1.2-1.8-1.1-2.9 0-.5.2-.9.4-1.4.1-.1.1-.1.2 0 .9 1.1 2 1.9 3.2 2.5 1.1.5 2.2.9 3.5 1h.3c.1 0 .2 0 .1-.2-.1-.6-.1-1.2.1-1.8.5-1.4 1.5-2.2 2.9-2.3 1.1-.1 2.1.2 2.9 1 .1.1.2.1.2.1.7-.2 1.3-.4 2-.7 0 0 .1 0 .1-.1-.1.4-.3.8-.6 1.1-.2.3-.5.6-.9.8.7-.1 1.3-.2 1.9-.5-.1.2-.3.4-.4.6-.3.4-.7.8-1.2 1.1-.1.1-.1.2-.1.3 0 1.1-.1 2.1-.4 3.1-.4 1.3-1 2.5-1.9 3.6-.9 1.1-2 2-3.3 2.6-.9.5-1.9.7-3 .9-.5.1-1 .1-1.6.1-1.3 0-2.6-.3-3.7-.8-.5-.2-.9-.4-1.3-.7 0 0-.1 0-.1-.1 1.8.3 3.5-.2 5-1.3z"/></svg>